<mxfile host="app.diagrams.net" modified="2022-03-16T22:17:57.722Z" agent="5.0 (Windows NT 10.0; Win64; x64) AppleWebKit/537.36 (KHTML, like Gecko) Chrome/99.0.4844.51 Safari/537.36" etag="pngR31gGiBrpfAy8FdBs" version="17.1.3" type="github">
  <diagram id="QN0evkdvYmPLCqj9xY8h" name="Page-1">
    <mxGraphModel dx="1038" dy="547" grid="1" gridSize="10" guides="1" tooltips="1" connect="1" arrows="1" fold="1" page="1" pageScale="1" pageWidth="827" pageHeight="1169" math="0" shadow="0">
      <root>
        <mxCell id="0" />
        <mxCell id="1" parent="0" />
        <mxCell id="hipOnUwGpUSQk2izLMv4-4" style="edgeStyle=orthogonalEdgeStyle;rounded=0;orthogonalLoop=1;jettySize=auto;html=1;entryX=0;entryY=0.5;entryDx=0;entryDy=0;" edge="1" parent="1" source="hipOnUwGpUSQk2izLMv4-1" target="hipOnUwGpUSQk2izLMv4-2">
          <mxGeometry relative="1" as="geometry" />
        </mxCell>
        <mxCell id="hipOnUwGpUSQk2izLMv4-1" value="ENTRADA" style="rounded=0;whiteSpace=wrap;html=1;" vertex="1" parent="1">
          <mxGeometry x="80" y="200" width="120" height="60" as="geometry" />
        </mxCell>
        <mxCell id="hipOnUwGpUSQk2izLMv4-5" style="edgeStyle=orthogonalEdgeStyle;rounded=0;orthogonalLoop=1;jettySize=auto;html=1;entryX=0;entryY=0.5;entryDx=0;entryDy=0;" edge="1" parent="1" source="hipOnUwGpUSQk2izLMv4-2" target="hipOnUwGpUSQk2izLMv4-3">
          <mxGeometry relative="1" as="geometry" />
        </mxCell>
        <mxCell id="hipOnUwGpUSQk2izLMv4-2" value="TRANSFORMAÇÃO" style="rounded=0;whiteSpace=wrap;html=1;" vertex="1" parent="1">
          <mxGeometry x="294" y="200" width="126" height="60" as="geometry" />
        </mxCell>
        <mxCell id="hipOnUwGpUSQk2izLMv4-8" style="edgeStyle=orthogonalEdgeStyle;rounded=0;orthogonalLoop=1;jettySize=auto;html=1;entryX=0.5;entryY=1;entryDx=0;entryDy=0;" edge="1" parent="1" source="hipOnUwGpUSQk2izLMv4-3" target="hipOnUwGpUSQk2izLMv4-1">
          <mxGeometry relative="1" as="geometry">
            <mxPoint x="140" y="270" as="targetPoint" />
            <Array as="points">
              <mxPoint x="570" y="380" />
              <mxPoint x="140" y="380" />
            </Array>
          </mxGeometry>
        </mxCell>
        <mxCell id="hipOnUwGpUSQk2izLMv4-3" value="SAÍDA" style="rounded=0;whiteSpace=wrap;html=1;" vertex="1" parent="1">
          <mxGeometry x="510" y="200" width="120" height="60" as="geometry" />
        </mxCell>
        <mxCell id="hipOnUwGpUSQk2izLMv4-9" value="FEEDBACK" style="text;html=1;align=center;verticalAlign=middle;resizable=0;points=[];autosize=1;strokeColor=none;fillColor=none;" vertex="1" parent="1">
          <mxGeometry x="300" y="360" width="80" height="20" as="geometry" />
        </mxCell>
      </root>
    </mxGraphModel>
  </diagram>
</mxfile>
